  0
SECTION
  2
HEADER
  9
$ANGBASE
  50
0.0
  9
$ANGDIR
  70
1
  9
$MEASUREMENT
  70
1
  0
ENDSEC
  0
SECTION
  2
TABLES
  0
TABLE
  2
LTYPE
  70
4
  0
LTYPE
  5
40F
  2
CONTINUOUS
  70
0
  3
Solid line
  72
65
  73
0
  40
0.0
  0
LTYPE
  5
410
  2
DASHDOT
 70
0
  3
Dash Dot ____ _ ____ _
 72
65
 73
4
 40
2.0
 49
1.25
 49
-0.25
 49
0.25
 49
-0.25
  0
LTYPE
  5
411
  2
DASHED
 70
0
  3
Dashed __ __ __ __ __
 72
65
 73
2
 40
0.75
 49
0.5
 49
-0.25
  0
LTYPE
  5
43B
  2
DOTTED
 70
0
  3
Dotted .  .  .  .
 72
65
 73
2
 40
0.2
 49
0.0
 49
-0.2
  0
ENDTAB
  0
TABLE
  2
STYLE
  70
4
  0
STYLE
  2
KICAD
  70
0
  40
0
  41
1
  42
1
  50
0
  71
0
  3
isocp.shx
  0
STYLE
  2
KICADB
  70
0
  40
0
  41
1
  42
1
  50
0
  71
0
  3
isocp.shx
  0
STYLE
  2
KICADI
  70
0
  40
0
  41
1
  42
1
  50
15
  71
0
  3
isocp.shx
  0
STYLE
  2
KICADBI
  70
0
  40
0
  41
1
  42
1
  50
15
  71
0
  3
isocp.shx
  0
ENDTAB
  0
TABLE
  2
LAYER
  70
1
  0
LAYER
  2
BLACK
  70
0
  62
7
  6
CONTINUOUS
  0
ENDTAB
  0
ENDSEC
  0
SECTION
  2
ENTITIES
0
LINE
8
BLACK
6
CONTINUOUS
10
166.25
20
-51.
11
154.25
21
-51.
0
ARC
8
BLACK
10
182.25
20
-76.25
40
3.
50
0.00000000
51
90.00000000
0
ARC
8
BLACK
10
134.
20
-100.
40
2.9999998823881642
50
-90.00000000
51
-19.47122143
0
LINE
8
BLACK
6
CONTINUOUS
10
109.75
20
-100.
11
109.75
21
-91.5999999999999943
0
ARC
8
BLACK
10
154.25
20
-50.
40
1.
50
-180.00000000
51
-90.00000000
0
LINE
8
BLACK
6
CONTINUOUS
10
146.
20
-123.25
11
149.5
21
-104.
0
LINE
8
BLACK
6
CONTINUOUS
10
148.4633440000000064
20
-126.2016099999999881
11
180.25
21
-133.
0
ARC
8
BLACK
10
180.25
20
-130.
40
3.0000005149387889
50
-90.00000000
51
-14.03624347
0
ARC
8
BLACK
10
184.5
20
-114.75
40
3.0000009747745082
50
0.00000000
51
75.52245317
0
ARC
8
BLACK
10
149.
20
-123.25
40
3.0000002090726592
50
-180.00000000
51
-100.30483964
0
LINE
8
BLACK
6
CONTINUOUS
10
96.
20
-54.
11
96.
21
-63.
0
LINE
8
BLACK
6
CONTINUOUS
10
171.5999999999999943
20
-59.5999999999999943
11
169.25
21
-59.5999999999999943
0
ARC
8
BLACK
10
117.
20
-50.
40
1.
50
90.00000000
51
180.00000000
0
ARC
8
BLACK
10
166.25
20
-54.
40
3.
50
0.00000000
51
90.00000000
0
LINE
8
BLACK
6
CONTINUOUS
10
83.
20
-69.
11
83.
21
-85.5999999999999943
0
ARC
8
BLACK
10
93.
20
-63.
40
3.
50
-90.00000000
51
-0.00000000
0
LINE
8
BLACK
6
CONTINUOUS
10
86.
20
-66.
11
93.
21
-66.
0
ARC
8
BLACK
10
99.
20
-54.
40
3.
50
90.00000000
51
180.00000000
0
LINE
8
BLACK
6
CONTINUOUS
10
185.25
20
-76.25
11
185.25
21
-111.8395719999999898
0
ARC
8
BLACK
10
150.25
20
-50.
40
3.
50
0.00000000
51
90.00000000
0
ARC
8
BLACK
10
86.
20
-69.
40
3.
50
90.00000000
51
180.00000000
0
ARC
8
BLACK
10
133.
20
-48.
40
1.
50
90.00000000
51
180.00000000
0
LINE
8
BLACK
6
CONTINUOUS
10
99.
20
-51.
11
115.
21
-51.
0
ARC
8
BLACK
10
131.
20
-48.
40
1.
50
-90.00000000
51
-0.00000000
0
LINE
8
BLACK
6
CONTINUOUS
10
133.
20
-47.
11
150.25
21
-47.
0
ARC
8
BLACK
10
146.5
20
-104.
40
3.
50
0.00000000
51
90.00000000
0
LINE
8
BLACK
6
CONTINUOUS
10
136.8284260000000074
20
-101.
11
146.5
21
-101.
0
ARC
8
BLACK
10
115.
20
-50.
40
1.
50
-90.00000000
51
-0.00000000
0
LINE
8
BLACK
6
CONTINUOUS
10
183.160427999999996
20
-130.7276039999999853
11
187.5000009999999975
21
-114.75
0
LINE
8
BLACK
6
CONTINUOUS
10
117.
20
-49.
11
131.
21
-49.
0
LINE
8
BLACK
6
CONTINUOUS
10
171.5999999999999943
20
-73.25
11
171.5999999999999943
21
-59.5999999999999943
0
LINE
8
BLACK
6
CONTINUOUS
10
169.25
20
-54.
11
169.25
21
-59.5999999999999943
0
LINE
8
BLACK
6
CONTINUOUS
10
171.5999999999999943
20
-73.25
11
182.25
21
-73.25
0
ARC
8
BLACK
10
106.75
20
-91.5999999999999943
40
3.
50
0.00000000
51
90.00000000
0
ARC
8
BLACK
10
86.
20
-85.5999999999999943
40
3.
50
-180.00000000
51
-90.00000000
0
LINE
8
BLACK
6
CONTINUOUS
10
86.
20
-88.5999999999999943
11
106.75
21
-88.5999999999999943
0
ARC
8
BLACK
10
112.75
20
-100.
40
3.
50
-180.00000000
51
-90.00000000
0
LINE
8
BLACK
6
CONTINUOUS
10
112.75
20
-103.
11
134.
21
-103.
0
LINE
8
BLACK
6
CONTINUOUS
10
87.1079999999999899
20
-73.0300000000000011
11
101.2079999999999984
21
-73.0300000000000011
0
LINE
8
BLACK
6
CONTINUOUS
10
87.1079999999999899
20
-87.1299999999999955
11
87.1079999999999899
21
-73.0300000000000011
0
LINE
8
BLACK
6
CONTINUOUS
10
101.2079999999999984
20
-73.0300000000000011
11
101.2079999999999984
21
-87.1299999999999955
0
LINE
8
BLACK
6
CONTINUOUS
10
101.2079999999999984
20
-87.1299999999999955
11
87.1079999999999899
21
-87.1299999999999955
0
LINE
8
BLACK
6
CONTINUOUS
10
119.1079999999999899
20
-85.0300000000000011
11
133.2079999999999984
21
-85.0300000000000011
0
LINE
8
BLACK
6
CONTINUOUS
10
119.1079999999999899
20
-99.1299999999999955
11
119.1079999999999899
21
-85.0300000000000011
0
LINE
8
BLACK
6
CONTINUOUS
10
133.2079999999999984
20
-85.0300000000000011
11
133.2079999999999984
21
-99.1299999999999955
0
LINE
8
BLACK
6
CONTINUOUS
10
133.2079999999999984
20
-99.1299999999999955
11
119.1079999999999899
21
-99.1299999999999955
0
LINE
8
BLACK
6
CONTINUOUS
10
135.1080000000000041
20
-67.0300000000000011
11
149.2079999999999984
21
-67.0300000000000011
0
LINE
8
BLACK
6
CONTINUOUS
10
135.1080000000000041
20
-81.1299999999999955
11
135.1080000000000041
21
-67.0300000000000011
0
LINE
8
BLACK
6
CONTINUOUS
10
149.2079999999999984
20
-67.0300000000000011
11
149.2079999999999984
21
-81.1299999999999955
0
LINE
8
BLACK
6
CONTINUOUS
10
149.2079999999999984
20
-81.1299999999999955
11
135.1080000000000041
21
-81.1299999999999955
0
LINE
8
BLACK
6
CONTINUOUS
10
167.1080000000000041
20
-91.0300000000000011
11
181.2079999999999984
21
-91.0300000000000011
0
LINE
8
BLACK
6
CONTINUOUS
10
167.1080000000000041
20
-105.1299999999999955
11
167.1080000000000041
21
-91.0300000000000011
0
LINE
8
BLACK
6
CONTINUOUS
10
181.2079999999999984
20
-91.0300000000000011
11
181.2079999999999984
21
-105.1299999999999955
0
LINE
8
BLACK
6
CONTINUOUS
10
181.2079999999999984
20
-105.1299999999999955
11
167.1080000000000041
21
-105.1299999999999955
0
LINE
8
BLACK
6
CONTINUOUS
10
135.1080000000000041
20
-83.0300000000000011
11
149.2079999999999984
21
-83.0300000000000011
0
LINE
8
BLACK
6
CONTINUOUS
10
135.1080000000000041
20
-97.1299999999999955
11
135.1080000000000041
21
-83.0300000000000011
0
LINE
8
BLACK
6
CONTINUOUS
10
149.2079999999999984
20
-83.0300000000000011
11
149.2079999999999984
21
-97.1299999999999955
0
LINE
8
BLACK
6
CONTINUOUS
10
149.2079999999999984
20
-97.1299999999999955
11
135.1080000000000041
21
-97.1299999999999955
0
LINE
8
BLACK
6
CONTINUOUS
10
119.1079999999999899
20
-69.0300000000000011
11
133.2079999999999984
21
-69.0300000000000011
0
LINE
8
BLACK
6
CONTINUOUS
10
119.1079999999999899
20
-83.1299999999999955
11
119.1079999999999899
21
-69.0300000000000011
0
LINE
8
BLACK
6
CONTINUOUS
10
133.2079999999999984
20
-69.0300000000000011
11
133.2079999999999984
21
-83.1299999999999955
0
LINE
8
BLACK
6
CONTINUOUS
10
133.2079999999999984
20
-83.1299999999999955
11
119.1079999999999899
21
-83.1299999999999955
0
LINE
8
BLACK
6
CONTINUOUS
10
151.1080000000000041
20
-71.0300000000000011
11
165.2079999999999984
21
-71.0300000000000011
0
LINE
8
BLACK
6
CONTINUOUS
10
151.1080000000000041
20
-85.1299999999999955
11
151.1080000000000041
21
-71.0300000000000011
0
LINE
8
BLACK
6
CONTINUOUS
10
165.2079999999999984
20
-71.0300000000000011
11
165.2079999999999984
21
-85.1299999999999955
0
LINE
8
BLACK
6
CONTINUOUS
10
165.2079999999999984
20
-85.1299999999999955
11
151.1080000000000041
21
-85.1299999999999955
0
LINE
8
BLACK
6
CONTINUOUS
10
151.1080000000000041
20
-55.029999999999994
11
165.2079999999999984
21
-55.029999999999994
0
LINE
8
BLACK
6
CONTINUOUS
10
151.1080000000000041
20
-69.1299999999999955
11
151.1080000000000041
21
-55.029999999999994
0
LINE
8
BLACK
6
CONTINUOUS
10
165.2079999999999984
20
-55.029999999999994
11
165.2079999999999984
21
-69.1299999999999955
0
LINE
8
BLACK
6
CONTINUOUS
10
165.2079999999999984
20
-69.1299999999999955
11
151.1080000000000041
21
-69.1299999999999955
0
LINE
8
BLACK
6
CONTINUOUS
10
151.1080000000000041
20
-87.0300000000000011
11
165.2079999999999984
21
-87.0300000000000011
0
LINE
8
BLACK
6
CONTINUOUS
10
151.1080000000000041
20
-101.1299999999999955
11
151.1080000000000041
21
-87.0300000000000011
0
LINE
8
BLACK
6
CONTINUOUS
10
165.2079999999999984
20
-87.0300000000000011
11
165.2079999999999984
21
-101.1299999999999955
0
LINE
8
BLACK
6
CONTINUOUS
10
165.2079999999999984
20
-101.1299999999999955
11
151.1080000000000041
21
-101.1299999999999955
0
LINE
8
BLACK
6
CONTINUOUS
10
119.1079999999999899
20
-53.0300000000000011
11
133.2079999999999984
21
-53.0300000000000011
0
LINE
8
BLACK
6
CONTINUOUS
10
119.1079999999999899
20
-67.1299999999999955
11
119.1079999999999899
21
-53.0300000000000011
0
LINE
8
BLACK
6
CONTINUOUS
10
133.2079999999999984
20
-53.0300000000000011
11
133.2079999999999984
21
-67.1299999999999955
0
LINE
8
BLACK
6
CONTINUOUS
10
133.2079999999999984
20
-67.1299999999999955
11
119.1079999999999899
21
-67.1299999999999955
0
LINE
8
BLACK
6
CONTINUOUS
10
103.1079999999999899
20
-71.0300000000000011
11
117.2079999999999984
21
-71.0300000000000011
0
LINE
8
BLACK
6
CONTINUOUS
10
103.1079999999999899
20
-85.1299999999999955
11
103.1079999999999899
21
-71.0300000000000011
0
LINE
8
BLACK
6
CONTINUOUS
10
117.2079999999999984
20
-71.0300000000000011
11
117.2079999999999984
21
-85.1299999999999955
0
LINE
8
BLACK
6
CONTINUOUS
10
117.2079999999999984
20
-85.1299999999999955
11
103.1079999999999899
21
-85.1299999999999955
0
LINE
8
BLACK
6
CONTINUOUS
10
103.1079999999999899
20
-55.029999999999994
11
117.2079999999999984
21
-55.029999999999994
0
LINE
8
BLACK
6
CONTINUOUS
10
103.1079999999999899
20
-69.1299999999999955
11
103.1079999999999899
21
-55.029999999999994
0
LINE
8
BLACK
6
CONTINUOUS
10
117.2079999999999984
20
-55.029999999999994
11
117.2079999999999984
21
-69.1299999999999955
0
LINE
8
BLACK
6
CONTINUOUS
10
117.2079999999999984
20
-69.1299999999999955
11
103.1079999999999899
21
-69.1299999999999955
0
LINE
8
BLACK
6
CONTINUOUS
10
150.0745859999999823
20
-122.3852749999999929
11
152.5230249999999899
21
-108.4994859999999903
0
LINE
8
BLACK
6
CONTINUOUS
10
152.5230249999999899
20
-108.4994859999999903
11
166.4088140000000067
21
-110.9479249999999979
0
LINE
8
BLACK
6
CONTINUOUS
10
163.9603749999999991
20
-124.8337140000000005
11
150.0745859999999823
21
-122.3852749999999929
0
LINE
8
BLACK
6
CONTINUOUS
10
166.4088140000000067
20
-110.9479249999999979
11
163.9603749999999991
21
-124.8337140000000005
0
LINE
8
BLACK
6
CONTINUOUS
10
135.1080000000000041
20
-51.0300000000000011
11
149.2079999999999984
21
-51.0300000000000011
0
LINE
8
BLACK
6
CONTINUOUS
10
135.1080000000000041
20
-65.1299999999999955
11
135.1080000000000041
21
-51.0300000000000011
0
LINE
8
BLACK
6
CONTINUOUS
10
149.2079999999999984
20
-51.0300000000000011
11
149.2079999999999984
21
-65.1299999999999955
0
LINE
8
BLACK
6
CONTINUOUS
10
149.2079999999999984
20
-65.1299999999999955
11
135.1080000000000041
21
-65.1299999999999955
0
LINE
8
BLACK
6
CONTINUOUS
10
167.1080000000000041
20
-75.0300000000000011
11
181.2079999999999984
21
-75.0300000000000011
0
LINE
8
BLACK
6
CONTINUOUS
10
167.1080000000000041
20
-89.1299999999999955
11
167.1080000000000041
21
-75.0300000000000011
0
LINE
8
BLACK
6
CONTINUOUS
10
181.2079999999999984
20
-75.0300000000000011
11
181.2079999999999984
21
-89.1299999999999955
0
LINE
8
BLACK
6
CONTINUOUS
10
181.2079999999999984
20
-89.1299999999999955
11
167.1080000000000041
21
-89.1299999999999955
0
LINE
8
BLACK
6
CONTINUOUS
10
166.0224489999999946
20
-125.2999030000000005
11
169.671796999999998
21
-111.6803489999999925
0
LINE
8
BLACK
6
CONTINUOUS
10
169.671796999999998
20
-111.6803489999999925
11
183.2913509999999917
21
-115.3296969999999959
0
LINE
8
BLACK
6
CONTINUOUS
10
179.6420029999999883
20
-128.9492510000000038
11
166.0224489999999946
21
-125.2999030000000005
0
LINE
8
BLACK
6
CONTINUOUS
10
183.2913509999999917
20
-115.3296969999999959
11
179.6420029999999883
21
-128.9492510000000038
  0
ENDSEC
  0
EOF
